<svg xmlns="http://www.w3.org/2000/svg" version="1.1" viewBox="-5.0 -10.0 110.0 135.0">
 <path d="m7.8984 7.0664 31.145-3.6953c1.5117-0.17969 2.9648 0.27344 4.0781 1.1523 1.1172 0.87891 1.9023 2.1875 2.082 3.7031l3.6992 31.203c0.16016 1.4922-0.29297 2.9219-1.1602 4.0234-0.875 1.1133-2.1836 1.8984-3.6992 2.0781l-31.152 3.6953c-1.5156 0.17969-2.9648-0.27734-4.0781-1.1523-1.1172-0.87891-1.9023-2.1875-2.082-3.7031l-3.6953-31.145c-0.17969-1.5156 0.27734-2.9688 1.1523-4.082 0.87891-1.1172 2.1836-1.9023 3.7031-2.0781zm48.641 70.371c-1.1055 0-2-0.89453-2-2s0.89453-2 2-2h38.461c1.1055 0 2 0.89453 2 2s-0.89453 2-2 2zm0 14.242c-1.1055 0-2-0.89453-2-2 0-1.1055 0.89453-2 2-2h38.461c1.1055 0 2 0.89453 2 2 0 1.1055-0.89453 2-2 2zm0-28.484c-1.1055 0-2-0.89453-2-2 0-1.1055 0.89453-2 2-2h38.461c1.1055 0 2 0.89453 2 2 0 1.1055-0.89453 2-2 2zm24.656-17.953c1.1055 0 2 0.89453 2 2 0 1.1055-0.89453 2-2 2h-21.109c-1.5273 0-2.918-0.625-3.9219-1.6289-1.0039-1.0039-1.6289-2.3945-1.6289-3.9219v-31.363c0-1.5234 0.625-2.9102 1.6289-3.9141 1.0117-1.0117 2.3984-1.6367 3.9219-1.6367h31.363c1.5273 0 2.9141 0.625 3.9219 1.6289 1.0039 1.0039 1.6289 2.3945 1.6289 3.9219v31.363c0 1.5273-0.625 2.918-1.6289 3.918-1.0039 1.0039-2.3945 1.6289-3.9219 1.6289h-3.1406c-1.1055 0-2-0.89453-2-2s0.89453-2 2-2h3.1406c0.42578 0 0.8125-0.17578 1.0938-0.45703 0.27734-0.27734 0.45312-0.66797 0.45312-1.0898v-31.363c0-0.42578-0.17578-0.8125-0.45312-1.0938-0.28125-0.28125-0.66797-0.45703-1.0938-0.45703h-31.363c-0.42969 0-0.82031 0.17578-1.0977 0.45312-0.27734 0.28125-0.45312 0.66797-0.45312 1.0977v31.363c0 0.42578 0.17578 0.8125 0.45703 1.0938 0.27734 0.27734 0.66797 0.45312 1.0938 0.45312h21.109zm-70.082 37.316c0 1.1055-0.89453 2-2 2s-2-0.89453-2-2v-0.23828c0-1.1055 0.89453-2 2-2s2 0.89453 2 2zm0-7.3555c0 1.1055-0.89453 2-2 2s-2-0.89453-2-2v-15.449c0-1.5273 0.625-2.9141 1.6289-3.9219 1.0039-1.0039 2.3945-1.6289 3.9219-1.6289h31.363c1.5273 0 2.918 0.625 3.9219 1.6289 1.0039 1.0039 1.6289 2.3945 1.6289 3.9219v31.363c0 1.5234-0.625 2.9102-1.6289 3.9141-1.0117 1.0117-2.3984 1.6367-3.9219 1.6367h-31.363c-1.5234 0-2.9102-0.625-3.9141-1.6289-1.0117-1.0117-1.6367-2.3984-1.6367-3.9219v-1.4414c0-1.1055 0.89453-2 2-2s2 0.89453 2 2v1.4414c0 0.42578 0.17188 0.81641 0.45312 1.0977 0.28125 0.27734 0.66797 0.45312 1.0977 0.45312h31.363c0.42969 0 0.82031-0.17578 1.0977-0.45312 0.27734-0.28125 0.45312-0.66797 0.45312-1.0977v-31.363c0-0.42578-0.17578-0.8125-0.45703-1.0938-0.27734-0.27734-0.66797-0.45312-1.0938-0.45312h-31.363c-0.42578 0-0.8125 0.17578-1.0938 0.45312-0.28125 0.28125-0.45703 0.66797-0.45703 1.0938zm28.395-67.863-31.145 3.6953c-0.41797 0.050782-0.78516 0.26953-1.0273 0.57812-0.24609 0.3125-0.375 0.72266-0.32813 1.1445l3.6953 31.145c0.050781 0.42188 0.26953 0.78516 0.58203 1.0312s0.72266 0.375 1.1445 0.32422l31.223-3.707c0.38672-0.066406 0.72266-0.27734 0.95312-0.57031 0.23438-0.29688 0.35938-0.67188 0.33203-1.0664l-3.7031-31.223c-0.050781-0.41797-0.26953-0.78516-0.58203-1.0273-0.3125-0.24609-0.72266-0.375-1.1445-0.32422z" fill="#151019"/>
</svg>